<?xml version="1.0" encoding="UTF-8"?>
<svg xmlns="http://www.w3.org/2000/svg" xmlns:xlink="http://www.w3.org/1999/xlink" width="40px" height="40px" viewBox="0 0 40 40" version="1.1">
<g id="surface1">
<path style=" stroke:none;fill-rule:nonzero;fill:rgb(5.882353%,29.803923%,80.784315%);fill-opacity:1;" d="M 38.875 19.382812 C 36.910156 16.574219 33.035156 15.890625 30.226562 17.859375 C 27.414062 19.824219 26.730469 23.699219 28.699219 26.507812 C 30.667969 29.320312 34.539062 30.003906 37.351562 28.035156 C 40.160156 26.066406 40.84375 22.191406 38.875 19.382812 Z M 38.875 19.382812 "/>
<path style=" stroke:none;fill-rule:nonzero;fill:rgb(5.882353%,29.803923%,80.784315%);fill-opacity:1;" d="M 23.605469 20.804688 C 23.660156 18.890625 24.347656 15.808594 27.480469 12.648438 C 28.722656 11.394531 31.738281 9.484375 37.371094 9.703125 C 39.265625 9.597656 39.792969 7.808594 39.6875 6.859375 C 39.582031 5.914062 38.859375 4.859375 36.953125 4.757812 C 34.429688 4.621094 28.28125 3.796875 21.59375 10.195312 C 20.003906 11.714844 15.484375 18.121094 15.484375 18.121094 C 15.484375 18.121094 12.953125 21.367188 9.21875 24.382812 L 0 32.839844 C 2.773438 32.984375 2.871094 35.351562 5.820312 35.351562 C 8.859375 35.351562 8.859375 32.828125 11.898438 32.828125 C 14.9375 32.828125 14.9375 35.351562 17.976562 35.351562 C 21.015625 35.351562 21.015625 32.828125 24.054688 32.828125 C 26.835938 32.828125 27.078125 34.933594 29.421875 35.292969 C 28.632812 33.085938 26.765625 30.027344 25.015625 27.097656 C 24.242188 25.796875 23.550781 22.832031 23.605469 20.804688 Z M 23.605469 20.804688 "/>
</g>
</svg>
